<?xml version="1.0" standalone="no"?><!DOCTYPE svg PUBLIC "-//W3C//DTD SVG 1.1//EN" "http://www.w3.org/Graphics/SVG/1.1/DTD/svg11.dtd"><svg t="1694141589942" class="icon" viewBox="0 0 1024 1024" version="1.1" xmlns="http://www.w3.org/2000/svg" p-id="1969" xmlns:xlink="http://www.w3.org/1999/xlink" width="200" height="200"><path d="M699.806042 766.975423c22.824933-22.976485 59.770809-22.917093 82.522015 0.135167 22.751205 23.052261 22.691813 60.364729-0.13312 83.341214l-101.351305 102.03124c-93.503378 94.130065-245.978846 95.496079-341.059181 3.168252-0.548863-0.530431-42.887117-42.38331-182.554409-180.457259-92.91765-91.852692-102.174599-238.829286-14.73739-333.215351l163.026751-175.98648c86.78185-93.685649 246.748893-103.925637 345.968232-23.029733l148.070225 120.72741c25.073634 20.443112 28.991454 57.548732 8.746998 82.870174-20.242408 25.325538-56.981437 29.280221-82.057119 8.835061l-148.066129-120.723313c-51.890115-42.307534-142.663512-36.497365-187.438883 11.841522l-163.0288 175.988528c-42.56763 45.948874-37.904339 119.971698 11.151347 168.464185 102.559623 101.392264 181.60209 179.527468 181.69425 179.61758 49.43047 47.998919 129.359719 47.284168 177.895214-1.576958l101.351304-102.031239z" fill="#000000" p-id="1970"></path><path d="M453.599869 665.599542c-32.215002 0-58.326971-26.591201-58.326972-59.39193s26.111969-59.39193 58.326972-59.39193h430.161412c32.215002 0 58.326971 26.591201 58.326971 59.39193s-26.111969 59.39193-58.326971 59.39193H453.599869z" fill="#000000" p-id="1971"></path><path d="M533.973534 18.678066c22.005734-23.777252 58.914746-25.018338 82.435999-2.775037 23.5233 22.24535 24.752099 59.551674 2.744316 83.328926L227.648391 522.237663c-42.54715 45.96321-37.887955 120.014706 11.141107 168.529722l180.803371 178.898732c23.019493 22.777829 23.412708 60.102585 0.880639 83.369886-22.532069 23.267301-59.459514 23.66666-82.476959 0.890879L157.187034 775.024053c-92.86645-91.893652-102.119303-238.92759-14.718958-333.342327L533.973534 18.678066z" fill="#000000" p-id="1972"></path></svg>